<svg xmlns="http://www.w3.org/2000/svg" viewBox="0 0 512 512" width="100%" height="100%">
  <rect width="512" height="512" rx="128" fill="#4f46e5"/>
  <!-- Friendly Monster SVG -->
  <g transform="translate(106, 106) scale(1.17)">
    <!-- Body -->
    <path d="M40 180 C40 80, 216 80, 216 180 C216 230, 200 240, 180 240 L76 240 C56 240, 40 230, 40 180 Z" fill="#ffffff"/>
    <!-- Monster Little Horns -->
    <path d="M60 85 L50 55 L75 75 Z" fill="#fbbf24"/>
    <path d="M196 85 L206 55 L181 75 Z" fill="#fbbf24"/>
    <!-- Big Friendly Eyes -->
    <circle cx="95" cy="130" r="24" fill="#1e293b"/>
    <circle cx="161" cy="130" r="24" fill="#1e293b"/>
    <circle cx="101" cy="124" r="9" fill="#ffffff"/>
    <circle cx="167" cy="124" r="9" fill="#ffffff"/>
    <!-- Cheerful Smile with Little Tooth -->
    <path d="M90 170 Q128 200 166 170" fill="none" stroke="#1e293b" stroke-width="8" stroke-linecap="round"/>
    <path d="M110 178 L116 188 L122 178 Z" fill="#fbbf24"/>
  </g>
</svg>
